<?xml version="1.0" encoding="UTF-8" standalone="no"?>
<!-- Created with Inkscape (http://www.inkscape.org/) -->

<svg
   width="1560.5931"
   height="355.37827"
   viewBox="0 0 1560.5931 355.37827"
   version="1.1"
   id="svg1"
   xml:space="preserve"
   xmlns:xlink="http://www.w3.org/1999/xlink"
   xmlns="http://www.w3.org/2000/svg"
   xmlns:svg="http://www.w3.org/2000/svg"><defs
     id="defs1"><linearGradient
       id="linearGradient765"><stop
         style="stop-color:#074bbf;stop-opacity:1;"
         offset="0.29702973"
         id="stop766" /><stop
         style="stop-color:#68b4ff;stop-opacity:1;"
         offset="1"
         id="stop765" /></linearGradient><linearGradient
       id="linearGradient155"><stop
         style="stop-color:#68b4ff;stop-opacity:1;"
         offset="0"
         id="stop156" /><stop
         style="stop-color:#074bbf;stop-opacity:1;"
         offset="1"
         id="stop155" /></linearGradient><linearGradient
       xlink:href="#linearGradient155"
       id="linearGradient148"
       gradientUnits="userSpaceOnUse"
       gradientTransform="matrix(1.1595234,0,0,1.1595234,384.75944,-42.971998)"
       x1="947.85315"
       y1="243.78389"
       x2="955.1051"
       y2="617.66095" /><linearGradient
       id="linear-pattern-2"
       gradientUnits="userSpaceOnUse"
       x1="-0.096487097"
       y1="0"
       x2="1.037515"
       y2="0"
       gradientTransform="matrix(1.624e-5,1361.84,-1361.84,1.624e-5,1119.84,138.94)"><stop
         offset="0"
         stop-color="rgb(9.411621%, 37.254333%, 58.822632%)"
         stop-opacity="1"
         id="stop260" /><stop
         offset="0.0625"
         stop-color="rgb(9.411621%, 37.254333%, 58.822632%)"
         stop-opacity="1"
         id="stop261" /><stop
         offset="0.09375"
         stop-color="rgb(9.42688%, 37.44812%, 59.002686%)"
         stop-opacity="1"
         id="stop262" /><stop
         offset="0.101562"
         stop-color="rgb(9.455872%, 37.818909%, 59.347534%)"
         stop-opacity="1"
         id="stop263" /><stop
         offset="0.109375"
         stop-color="rgb(9.483337%, 38.169861%, 59.674072%)"
         stop-opacity="1"
         id="stop264" /><stop
         offset="0.117187"
         stop-color="rgb(9.510803%, 38.520813%, 60.00061%)"
         stop-opacity="1"
         id="stop265" /><stop
         offset="0.125"
         stop-color="rgb(9.538269%, 38.871765%, 60.328674%)"
         stop-opacity="1"
         id="stop266" /><stop
         offset="0.132812"
         stop-color="rgb(9.567261%, 39.222717%, 60.655212%)"
         stop-opacity="1"
         id="stop267" /><stop
         offset="0.140625"
         stop-color="rgb(9.594727%, 39.573669%, 60.98175%)"
         stop-opacity="1"
         id="stop268" /><stop
         offset="0.148438"
         stop-color="rgb(9.622192%, 39.924622%, 61.308289%)"
         stop-opacity="1"
         id="stop269" /><stop
         offset="0.15625"
         stop-color="rgb(9.649658%, 40.275574%, 61.634827%)"
         stop-opacity="1"
         id="stop270" /><stop
         offset="0.164062"
         stop-color="rgb(9.67865%, 40.626526%, 61.961365%)"
         stop-opacity="1"
         id="stop271" /><stop
         offset="0.171875"
         stop-color="rgb(9.706116%, 40.977478%, 62.287903%)"
         stop-opacity="1"
         id="stop272" /><stop
         offset="0.179687"
         stop-color="rgb(9.733582%, 41.32843%, 62.614441%)"
         stop-opacity="1"
         id="stop273" /><stop
         offset="0.1875"
         stop-color="rgb(9.761047%, 41.679382%, 62.940979%)"
         stop-opacity="1"
         id="stop274" /><stop
         offset="0.195312"
         stop-color="rgb(9.788513%, 42.028809%, 63.267517%)"
         stop-opacity="1"
         id="stop275" /><stop
         offset="0.203125"
         stop-color="rgb(9.817505%, 42.379761%, 63.594055%)"
         stop-opacity="1"
         id="stop276" /><stop
         offset="0.210937"
         stop-color="rgb(9.844971%, 42.730713%, 63.920593%)"
         stop-opacity="1"
         id="stop277" /><stop
         offset="0.21875"
         stop-color="rgb(9.872437%, 43.081665%, 64.247131%)"
         stop-opacity="1"
         id="stop278" /><stop
         offset="0.226562"
         stop-color="rgb(9.899902%, 43.432617%, 64.573669%)"
         stop-opacity="1"
         id="stop279" /><stop
         offset="0.234375"
         stop-color="rgb(9.927368%, 43.783569%, 64.900208%)"
         stop-opacity="1"
         id="stop280" /><stop
         offset="0.242187"
         stop-color="rgb(9.95636%, 44.134521%, 65.226746%)"
         stop-opacity="1"
         id="stop281" /><stop
         offset="0.25"
         stop-color="rgb(9.983826%, 44.485474%, 65.553284%)"
         stop-opacity="1"
         id="stop282" /><stop
         offset="0.257812"
         stop-color="rgb(10.011292%, 44.836426%, 65.879822%)"
         stop-opacity="1"
         id="stop283" /><stop
         offset="0.265625"
         stop-color="rgb(10.038757%, 45.187378%, 66.20636%)"
         stop-opacity="1"
         id="stop284" /><stop
         offset="0.273438"
         stop-color="rgb(10.067749%, 45.53833%, 66.532898%)"
         stop-opacity="1"
         id="stop285" /><stop
         offset="0.28125"
         stop-color="rgb(10.095215%, 45.889282%, 66.859436%)"
         stop-opacity="1"
         id="stop286" /><stop
         offset="0.289062"
         stop-color="rgb(10.122681%, 46.240234%, 67.185974%)"
         stop-opacity="1"
         id="stop287" /><stop
         offset="0.296875"
         stop-color="rgb(10.150146%, 46.591187%, 67.512512%)"
         stop-opacity="1"
         id="stop288" /><stop
         offset="0.304688"
         stop-color="rgb(10.177612%, 46.942139%, 67.83905%)"
         stop-opacity="1"
         id="stop289" /><stop
         offset="0.3125"
         stop-color="rgb(10.206604%, 47.293091%, 68.165588%)"
         stop-opacity="1"
         id="stop290" /><stop
         offset="0.320312"
         stop-color="rgb(10.23407%, 47.644043%, 68.492126%)"
         stop-opacity="1"
         id="stop291" /><stop
         offset="0.328125"
         stop-color="rgb(10.261536%, 47.994995%, 68.818665%)"
         stop-opacity="1"
         id="stop292" /><stop
         offset="0.335938"
         stop-color="rgb(10.289001%, 48.345947%, 69.145203%)"
         stop-opacity="1"
         id="stop293" /><stop
         offset="0.34375"
         stop-color="rgb(10.316467%, 48.696899%, 69.471741%)"
         stop-opacity="1"
         id="stop294" /><stop
         offset="0.351562"
         stop-color="rgb(10.345459%, 49.047852%, 69.798279%)"
         stop-opacity="1"
         id="stop295" /><stop
         offset="0.359375"
         stop-color="rgb(10.372925%, 49.398804%, 70.124817%)"
         stop-opacity="1"
         id="stop296" /><stop
         offset="0.367188"
         stop-color="rgb(10.400391%, 49.749756%, 70.451355%)"
         stop-opacity="1"
         id="stop297" /><stop
         offset="0.375"
         stop-color="rgb(10.427856%, 50.100708%, 70.777893%)"
         stop-opacity="1"
         id="stop298" /><stop
         offset="0.382812"
         stop-color="rgb(10.456848%, 50.45166%, 71.104431%)"
         stop-opacity="1"
         id="stop299" /><stop
         offset="0.390625"
         stop-color="rgb(10.484314%, 50.802612%, 71.432495%)"
         stop-opacity="1"
         id="stop300" /><stop
         offset="0.398438"
         stop-color="rgb(10.51178%, 51.153564%, 71.759033%)"
         stop-opacity="1"
         id="stop301" /><stop
         offset="0.40625"
         stop-color="rgb(10.539246%, 51.504517%, 72.085571%)"
         stop-opacity="1"
         id="stop302" /><stop
         offset="0.414062"
         stop-color="rgb(10.566711%, 51.855469%, 72.412109%)"
         stop-opacity="1"
         id="stop303" /><stop
         offset="0.421875"
         stop-color="rgb(10.595703%, 52.206421%, 72.738647%)"
         stop-opacity="1"
         id="stop304" /><stop
         offset="0.429688"
         stop-color="rgb(10.623169%, 52.555847%, 73.065186%)"
         stop-opacity="1"
         id="stop305" /><stop
         offset="0.4375"
         stop-color="rgb(10.650635%, 52.906799%, 73.391724%)"
         stop-opacity="1"
         id="stop306" /><stop
         offset="0.445312"
         stop-color="rgb(10.678101%, 53.257751%, 73.718262%)"
         stop-opacity="1"
         id="stop307" /><stop
         offset="0.453125"
         stop-color="rgb(10.705566%, 53.608704%, 74.0448%)"
         stop-opacity="1"
         id="stop308" /><stop
         offset="0.460938"
         stop-color="rgb(10.734558%, 53.959656%, 74.371338%)"
         stop-opacity="1"
         id="stop309" /><stop
         offset="0.46875"
         stop-color="rgb(10.762024%, 54.310608%, 74.697876%)"
         stop-opacity="1"
         id="stop310" /><stop
         offset="0.476562"
         stop-color="rgb(10.78949%, 54.66156%, 75.024414%)"
         stop-opacity="1"
         id="stop311" /><stop
         offset="0.484375"
         stop-color="rgb(10.816956%, 55.012512%, 75.350952%)"
         stop-opacity="1"
         id="stop312" /><stop
         offset="0.492187"
         stop-color="rgb(10.845947%, 55.363464%, 75.67749%)"
         stop-opacity="1"
         id="stop313" /><stop
         offset="0.5"
         stop-color="rgb(10.873413%, 55.714417%, 76.004028%)"
         stop-opacity="1"
         id="stop314" /><stop
         offset="0.507812"
         stop-color="rgb(10.900879%, 56.065369%, 76.330566%)"
         stop-opacity="1"
         id="stop315" /><stop
         offset="0.515625"
         stop-color="rgb(10.928345%, 56.416321%, 76.657104%)"
         stop-opacity="1"
         id="stop316" /><stop
         offset="0.523438"
         stop-color="rgb(10.955811%, 56.767273%, 76.983643%)"
         stop-opacity="1"
         id="stop317" /><stop
         offset="0.53125"
         stop-color="rgb(10.984802%, 57.118225%, 77.310181%)"
         stop-opacity="1"
         id="stop318" /><stop
         offset="0.539062"
         stop-color="rgb(11.012268%, 57.469177%, 77.636719%)"
         stop-opacity="1"
         id="stop319" /><stop
         offset="0.546875"
         stop-color="rgb(11.039734%, 57.820129%, 77.963257%)"
         stop-opacity="1"
         id="stop320" /><stop
         offset="0.554688"
         stop-color="rgb(11.0672%, 58.171082%, 78.289795%)"
         stop-opacity="1"
         id="stop321" /><stop
         offset="0.5625"
         stop-color="rgb(11.094666%, 58.522034%, 78.616333%)"
         stop-opacity="1"
         id="stop322" /><stop
         offset="0.570312"
         stop-color="rgb(11.123657%, 58.872986%, 78.942871%)"
         stop-opacity="1"
         id="stop323" /><stop
         offset="0.578125"
         stop-color="rgb(11.151123%, 59.223938%, 79.269409%)"
         stop-opacity="1"
         id="stop324" /><stop
         offset="0.585938"
         stop-color="rgb(11.178589%, 59.57489%, 79.595947%)"
         stop-opacity="1"
         id="stop325" /><stop
         offset="0.59375"
         stop-color="rgb(11.206055%, 59.925842%, 79.922485%)"
         stop-opacity="1"
         id="stop326" /><stop
         offset="0.601562"
         stop-color="rgb(11.235046%, 60.276794%, 80.249023%)"
         stop-opacity="1"
         id="stop327" /><stop
         offset="0.609375"
         stop-color="rgb(11.262512%, 60.627747%, 80.575562%)"
         stop-opacity="1"
         id="stop328" /><stop
         offset="0.617188"
         stop-color="rgb(11.289978%, 60.978699%, 80.9021%)"
         stop-opacity="1"
         id="stop329" /><stop
         offset="0.625"
         stop-color="rgb(11.317444%, 61.329651%, 81.228638%)"
         stop-opacity="1"
         id="stop330" /><stop
         offset="0.632812"
         stop-color="rgb(11.34491%, 61.680603%, 81.555176%)"
         stop-opacity="1"
         id="stop331" /><stop
         offset="0.640625"
         stop-color="rgb(11.373901%, 62.031555%, 81.881714%)"
         stop-opacity="1"
         id="stop332" /><stop
         offset="0.648438"
         stop-color="rgb(11.401367%, 62.382507%, 82.208252%)"
         stop-opacity="1"
         id="stop333" /><stop
         offset="0.65625"
         stop-color="rgb(11.428833%, 62.733459%, 82.53479%)"
         stop-opacity="1"
         id="stop334" /><stop
         offset="0.664062"
         stop-color="rgb(11.456299%, 63.082886%, 82.862854%)"
         stop-opacity="1"
         id="stop335" /><stop
         offset="0.671875"
         stop-color="rgb(11.483765%, 63.433838%, 83.189392%)"
         stop-opacity="1"
         id="stop336" /><stop
         offset="0.679688"
         stop-color="rgb(11.512756%, 63.78479%, 83.51593%)"
         stop-opacity="1"
         id="stop337" /><stop
         offset="0.6875"
         stop-color="rgb(11.540222%, 64.135742%, 83.842468%)"
         stop-opacity="1"
         id="stop338" /><stop
         offset="0.695312"
         stop-color="rgb(11.567688%, 64.486694%, 84.169006%)"
         stop-opacity="1"
         id="stop339" /><stop
         offset="0.703125"
         stop-color="rgb(11.595154%, 64.837646%, 84.495544%)"
         stop-opacity="1"
         id="stop340" /><stop
         offset="0.710938"
         stop-color="rgb(11.624146%, 65.188599%, 84.822083%)"
         stop-opacity="1"
         id="stop341" /><stop
         offset="0.71875"
         stop-color="rgb(11.651611%, 65.539551%, 85.148621%)"
         stop-opacity="1"
         id="stop342" /><stop
         offset="0.726562"
         stop-color="rgb(11.679077%, 65.890503%, 85.475159%)"
         stop-opacity="1"
         id="stop343" /><stop
         offset="0.734375"
         stop-color="rgb(11.706543%, 66.241455%, 85.801697%)"
         stop-opacity="1"
         id="stop344" /><stop
         offset="0.742188"
         stop-color="rgb(11.734009%, 66.592407%, 86.128235%)"
         stop-opacity="1"
         id="stop345" /><stop
         offset="0.75"
         stop-color="rgb(11.763%, 66.943359%, 86.454773%)"
         stop-opacity="1"
         id="stop346" /><stop
         offset="0.757812"
         stop-color="rgb(11.790466%, 67.294312%, 86.781311%)"
         stop-opacity="1"
         id="stop347" /><stop
         offset="0.765625"
         stop-color="rgb(11.817932%, 67.645264%, 87.107849%)"
         stop-opacity="1"
         id="stop348" /><stop
         offset="0.773438"
         stop-color="rgb(11.845398%, 67.996216%, 87.434387%)"
         stop-opacity="1"
         id="stop349" /><stop
         offset="0.78125"
         stop-color="rgb(11.87439%, 68.347168%, 87.760925%)"
         stop-opacity="1"
         id="stop350" /><stop
         offset="0.789062"
         stop-color="rgb(11.901855%, 68.69812%, 88.087463%)"
         stop-opacity="1"
         id="stop351" /><stop
         offset="0.796875"
         stop-color="rgb(11.929321%, 69.049072%, 88.414001%)"
         stop-opacity="1"
         id="stop352" /><stop
         offset="0.804688"
         stop-color="rgb(11.956787%, 69.400024%, 88.74054%)"
         stop-opacity="1"
         id="stop353" /><stop
         offset="0.8125"
         stop-color="rgb(11.984253%, 69.750977%, 89.067078%)"
         stop-opacity="1"
         id="stop354" /><stop
         offset="0.820312"
         stop-color="rgb(12.013245%, 70.101929%, 89.393616%)"
         stop-opacity="1"
         id="stop355" /><stop
         offset="0.828125"
         stop-color="rgb(12.04071%, 70.452881%, 89.720154%)"
         stop-opacity="1"
         id="stop356" /><stop
         offset="0.835938"
         stop-color="rgb(12.068176%, 70.803833%, 90.046692%)"
         stop-opacity="1"
         id="stop357" /><stop
         offset="0.84375"
         stop-color="rgb(12.095642%, 71.154785%, 90.37323%)"
         stop-opacity="1"
         id="stop358" /><stop
         offset="0.851562"
         stop-color="rgb(12.123108%, 71.505737%, 90.699768%)"
         stop-opacity="1"
         id="stop359" /><stop
         offset="0.859375"
         stop-color="rgb(12.1521%, 71.856689%, 91.026306%)"
         stop-opacity="1"
         id="stop360" /><stop
         offset="0.867188"
         stop-color="rgb(12.179565%, 72.207642%, 91.352844%)"
         stop-opacity="1"
         id="stop361" /><stop
         offset="0.875"
         stop-color="rgb(12.207031%, 72.558594%, 91.679382%)"
         stop-opacity="1"
         id="stop362" /><stop
         offset="0.882812"
         stop-color="rgb(12.234497%, 72.909546%, 92.00592%)"
         stop-opacity="1"
         id="stop363" /><stop
         offset="0.890625"
         stop-color="rgb(12.263489%, 73.260498%, 92.332458%)"
         stop-opacity="1"
         id="stop364" /><stop
         offset="0.898438"
         stop-color="rgb(12.290955%, 73.609924%, 92.658997%)"
         stop-opacity="1"
         id="stop365" /><stop
         offset="0.90625"
         stop-color="rgb(12.31842%, 73.960876%, 92.985535%)"
         stop-opacity="1"
         id="stop366" /><stop
         offset="0.914062"
         stop-color="rgb(12.345886%, 74.311829%, 93.312073%)"
         stop-opacity="1"
         id="stop367" /><stop
         offset="0.921875"
         stop-color="rgb(12.373352%, 74.662781%, 93.638611%)"
         stop-opacity="1"
         id="stop368" /><stop
         offset="0.929688"
         stop-color="rgb(12.402344%, 75.013733%, 93.965149%)"
         stop-opacity="1"
         id="stop369" /><stop
         offset="0.9375"
         stop-color="rgb(12.42981%, 75.364685%, 94.293213%)"
         stop-opacity="1"
         id="stop370" /><stop
         offset="0.945312"
         stop-color="rgb(12.457275%, 75.715637%, 94.619751%)"
         stop-opacity="1"
         id="stop371" /><stop
         offset="0.953125"
         stop-color="rgb(12.484741%, 76.066589%, 94.946289%)"
         stop-opacity="1"
         id="stop372" /><stop
         offset="0.960937"
         stop-color="rgb(12.512207%, 76.417542%, 95.272827%)"
         stop-opacity="1"
         id="stop373" /><stop
         offset="0.96875"
         stop-color="rgb(12.538147%, 76.727295%, 95.559692%)"
         stop-opacity="1"
         id="stop374" /><stop
         offset="1"
         stop-color="rgb(12.548828%, 76.861572%, 95.684814%)"
         stop-opacity="1"
         id="stop375" /></linearGradient><linearGradient
       xlink:href="#linear-pattern-2"
       id="linearGradient646"
       x1="15.831148"
       y1="-506.34518"
       x2="119.80107"
       y2="-430.6012"
       gradientUnits="userSpaceOnUse"
       gradientTransform="matrix(1.5048873,0,0,1.5048873,48.685929,276.54732)" /><linearGradient
       xlink:href="#linearGradient765"
       id="linearGradient766"
       x1="79.904251"
       y1="-570.41827"
       x2="79.904251"
       y2="-442.27209"
       gradientUnits="userSpaceOnUse"
       spreadMethod="pad"
       gradientTransform="matrix(1.5048873,0,0,1.5048873,48.685929,276.54732)" /><linearGradient
       xlink:href="#linearGradient765"
       id="linearGradient770"
       x1="-584.50348"
       y1="-136.41409"
       x2="-473.17615"
       y2="-136.41409"
       gradientUnits="userSpaceOnUse"
       gradientTransform="matrix(-1.393477,-0.90625056,0.99280375,-1.3263938,-279.62362,-229.70139)" /></defs><g
     id="layer1"
     transform="translate(-134.67767,-289.03934)"><path
       style="font-weight:bold;font-size:272.846px;font-family:Inter;-inkscape-font-specification:'Inter Bold';letter-spacing:0px;fill:#4d4d4d;stroke-width:3.41058"
       d="m 512.00503,604.95565 q -25.44609,0 -43.43154,-7.99353 -17.98545,-8.12676 -27.5777,-23.44771 -9.59224,-15.32094 -9.59224,-36.90348 h 39.568 q 0.26645,10.92449 5.1958,18.65158 5.06257,7.72708 14.25514,11.85708 9.19256,4.12999 21.84899,4.12999 11.4574,0 19.85062,-3.06419 8.52643,-3.19741 13.18933,-8.92611 4.79612,-5.7287 4.79612,-13.45579 0,-6.39483 -3.73032,-11.05772 -3.59709,-4.79612 -11.4574,-8.39321 -7.72708,-3.5971 -20.38351,-6.26161 l -20.91642,-4.52967 q -29.57608,-6.39483 -43.96444,-20.11706 -14.38837,-13.72224 -14.38837,-35.03833 0,-18.11868 9.45902,-31.57447 9.45902,-13.58901 26.37867,-21.18286 17.05287,-7.59386 39.568,-7.59386 22.78157,0 39.43477,7.72708 16.6532,7.72708 25.84577,22.11545 9.32579,14.25514 9.99191,34.23898 h -38.36897 q -1.0658,-14.12192 -10.92449,-22.24868 -9.8587,-8.12676 -25.84577,-8.12676 -9.99192,0 -17.85223,3.19741 -7.72708,3.06419 -12.25675,8.65967 -4.39645,5.59547 -4.39645,12.78965 0,6.12838 3.46387,10.65805 3.46386,4.39645 11.05772,7.72709 7.59386,3.33064 19.71739,5.99515 l 19.05126,4.12999 q 15.85385,3.46387 27.44447,8.52644 11.59063,4.92935 19.05126,11.85708 7.46063,6.7945 11.05772,15.72062 3.5971,8.92611 3.5971,20.11706 0,19.05126 -9.59225,33.03995 -9.45901,13.85546 -27.17802,21.31609 -17.58577,7.46063 -41.96606,7.46063 z m 166.39877,0 q -21.04964,0 -37.03671,-9.19256 -15.85385,-9.32579 -24.77996,-25.84577 -8.79289,-16.6532 -8.79289,-38.36897 0,-21.84899 8.79289,-38.36897 8.92611,-16.65319 24.77996,-25.97899 15.98707,-9.32579 37.03671,-9.32579 13.85546,0 25.57931,4.13 11.72386,3.99676 20.38352,11.4574 8.79289,7.46063 13.98869,17.719 5.19579,10.12514 6.12837,22.51512 H 706.5144 q -0.79935,-5.46224 -3.06419,-9.85869 -2.13161,-4.39644 -5.59547,-7.59386 -3.46387,-3.19741 -8.25999,-4.92934 -4.6629,-1.73194 -10.65805,-1.73194 -9.85869,0 -16.91965,5.1958 -7.06095,5.06257 -10.9245,14.52159 -3.73031,9.32579 -3.73031,22.24867 0,12.78966 3.73031,22.11545 3.86355,9.32579 10.9245,14.52159 7.06096,5.06257 16.91965,5.06257 5.99515,0 10.65805,-1.73193 4.6629,-1.73193 7.99354,-4.92935 3.46386,-3.19741 5.59547,-7.59385 2.13161,-4.52967 3.06419,-10.12515 h 38.23574 q -0.66612,12.25675 -5.86192,22.51513 -5.06257,10.12514 -13.85546,17.719 -8.79289,7.59386 -20.64997,11.72385 -11.72385,4.12999 -25.71254,4.12999 z m 132.07966,-0.79935 q -13.98869,0 -24.91319,-4.6629 -10.9245,-4.66289 -17.1861,-13.98868 -6.2616,-9.45902 -6.2616,-23.44771 0,-11.85707 4.39644,-19.71738 4.39645,-7.99354 11.99031,-12.78966 7.72708,-4.92935 17.58577,-7.46063 9.99192,-2.53129 20.91642,-3.46387 12.92288,-1.33225 20.51674,-2.53128 7.59386,-1.19903 10.9245,-3.46387 3.33064,-2.26483 3.33064,-6.79451 v -0.93257 q 0,-5.1958 -2.79774,-9.05934 -2.79773,-3.99677 -7.99353,-6.26161 -5.06258,-2.26483 -12.25676,-2.26483 -7.19418,0 -12.78965,2.26483 -5.46225,2.26484 -8.65967,6.39483 -3.19741,4.12999 -3.73031,9.59224 h -36.90349 q 0.93258,-14.52159 8.52644,-25.17963 7.72708,-10.65805 21.58254,-16.38675 13.85546,-5.86193 33.17317,-5.86193 14.38837,0 25.71254,3.33064 11.32418,3.19742 19.05126,9.45902 7.86031,6.2616 11.85708,15.18772 3.99677,8.92611 3.99677,20.25029 v 95.38952 h -38.36897 v -19.85061 h -0.53291 q -3.73031,6.92773 -9.19256,11.85707 -5.46225,4.92935 -13.32256,7.72709 -7.86031,2.66451 -18.65158,2.66451 z m 10.9245,-27.31125 q 9.45901,0 16.25352,-3.46386 6.92773,-3.46387 10.65804,-9.45902 3.73032,-5.99515 3.73032,-13.58901 v -14.12191 q -1.73193,0.93258 -4.52967,1.86516 -2.79774,0.79935 -6.52805,1.5987 -3.73032,0.66613 -8.12676,1.46549 -4.39645,0.79935 -9.05934,1.46548 -6.79451,1.0658 -12.25676,3.33064 -5.46225,2.13161 -8.65966,5.86192 -3.19742,3.59709 -3.19742,9.19257 0,4.92935 2.66452,8.52644 2.66451,3.59709 7.59385,5.46225 4.92935,1.86515 11.45741,1.86515 z M 957.56448,403.25211 V 601.75824 H 918.26293 V 403.25211 Z m 91.92572,201.70354 q -21.3161,0 -37.17,-9.32579 -15.72058,-9.45901 -24.51347,-26.11221 -8.65966,-16.6532 -8.65966,-37.9693 0,-21.58254 8.79289,-38.10251 8.92611,-16.6532 24.51354,-26.11222 15.5874,-9.45902 35.7044,-9.45902 15.5874,0 28.2438,5.32903 12.6565,5.19579 21.849,15.05449 9.1926,9.72547 14.122,23.04802 5.0625,13.32256 5.0625,29.44286 v 10.52482 H 993.13575 v -25.04641 h 105.38145 l -17.719,5.99515 q 0,-10.65804 -3.8635,-18.38513 -3.8636,-7.72708 -11.0578,-11.85708 -7.0609,-4.26322 -16.9196,-4.26322 -9.7255,0 -16.7864,4.26322 -7.061,4.13 -10.9245,11.85708 -3.8636,7.72709 -3.8636,18.38513 v 17.05288 q 0,10.9245 3.8636,19.18448 3.9967,8.12676 11.4574,12.65643 7.4606,4.39645 17.9854,4.39645 7.7271,0 13.589,-2.13161 5.9952,-2.26484 9.9919,-6.2616 4.13,-4.13 5.862,-9.59225 h 35.8376 q -2.5312,13.98869 -11.857,24.64674 -9.3258,10.65805 -23.4477,16.78642 -14.1219,5.99515 -31.1748,5.99515 z"
       id="text1"
       aria-label="Scale" /><path
       style="font-weight:bold;font-size:272.846px;font-family:Inter;-inkscape-font-specification:'Inter Bold';letter-spacing:0px;fill:url(#linearGradient148);stroke-width:3.41058"
       d="m 1125.7314,596.04828 69.677,-198.50613 h 52.7573 l 69.677,198.50613 h -45.4299 l -31.1748,-96.58855 q -5.7287,-19.05126 -11.8571,-39.16833 -5.9952,-20.25029 -13.0561,-45.96283 h 11.3242 q -7.3275,25.71254 -13.4558,45.96283 -5.9952,20.11707 -11.9903,39.16833 l -32.2406,96.58855 z m 44.2309,-43.29832 v -32.77349 h 103.7827 v 32.77349 z m 243.6696,46.22928 q -9.1926,0 -17.1861,-2.66451 -7.9936,-2.66451 -14.2552,-8.12676 -6.1283,-5.59548 -10.2583,-13.72224 h -0.1332 v 21.58255 h -38.7687 V 397.54215 h 39.3016 v 77.27084 h 0.1332 q 4.5296,-7.59386 10.658,-12.5232 6.1284,-4.92935 13.8555,-7.32741 7.8603,-2.53129 16.9196,-2.53129 17.9855,0 31.5745,9.32579 13.7222,9.19257 21.3161,25.71254 7.7271,16.38675 7.7271,38.10252 0,21.98222 -7.5939,38.5022 -7.5938,16.51997 -21.1828,25.71254 -13.5891,9.19256 -32.1074,9.19256 z m -10.1252,-31.97414 q 9.5923,0 16.52,-4.79612 7.061,-4.92935 10.9245,-14.12191 3.9968,-9.32579 3.9968,-22.51513 0,-13.18933 -3.9968,-22.3819 -3.8635,-9.19256 -10.9245,-14.12191 -6.9277,-4.92935 -16.52,-4.92935 -9.8587,0 -17.4525,5.1958 -7.4606,5.06257 -11.5906,14.38836 -3.9968,9.19257 -3.9968,21.849 0,12.52321 3.9968,21.849 4.13,9.32579 11.5906,14.52159 7.5938,5.06257 17.4525,5.06257 z m 131.8934,-169.46295 v 198.50613 h -39.3016 V 397.54215 Z m 91.9256,201.70354 q -21.3161,0 -37.1699,-9.32579 -15.7206,-9.45902 -24.5135,-26.11221 -8.6597,-16.6532 -8.6597,-37.9693 0,-21.58254 8.7929,-38.10252 8.9261,-16.65319 24.5135,-26.11221 15.5874,-9.45902 35.7045,-9.45902 15.5874,0 28.2438,5.32903 12.6564,5.19579 21.849,15.05449 9.1926,9.72546 14.1219,23.04802 5.0626,13.32256 5.0626,29.44286 v 10.52482 h -124.2995 v -25.04641 h 105.3814 l -17.719,5.99515 q 0,-10.65805 -3.8635,-18.38513 -3.8636,-7.72708 -11.0577,-11.85708 -7.061,-4.26322 -16.9197,-4.26322 -9.7255,0 -16.7864,4.26322 -7.061,4.13 -10.9245,11.85708 -3.8635,7.72708 -3.8635,18.38513 v 17.05288 q 0,10.9245 3.8635,19.18448 3.9968,8.12676 11.4574,12.65643 7.4606,4.39645 17.9854,4.39645 7.7271,0 13.5891,-2.13161 5.9951,-2.26484 9.9919,-6.2616 4.13,-4.13 5.8619,-9.59225 h 35.8377 q -2.5313,13.98869 -11.8571,24.64674 -9.3258,10.65804 -23.4477,16.78642 -14.1219,5.99515 -31.1748,5.99515 z"
       id="text1-6"
       aria-label="Able" /><g
       id="g148"
       style="display:inline"
       transform="translate(-17.682094,-60.2147)"><path
         id="path148"
         style="display:inline;fill:none;stroke:#4f4f4f;stroke-width:15.0489"
         transform="rotate(-8.2575516)"
         d="M 313.19202,529.93317 A 112.55125,112.55125 0 0 1 200.64078,642.48441 112.55125,112.55125 0 0 1 88.089531,529.93317 112.55125,112.55125 0 0 1 200.64078,417.38192 112.55125,112.55125 0 0 1 313.19202,529.93317 Z" /><path
         id="rect148"
         style="fill:#4d4d4d;stroke:#4f4f4f;stroke-width:13.9962"
         transform="rotate(-35.090432)"
         d="m -65.845137,682.38556 h 12.427676 c 2.997012,0 5.409769,2.41276 5.409769,5.40977 V 799.7824 c 0,2.99701 -2.412757,5.40977 -5.409769,5.40977 h -12.427676 c -2.997012,0 -5.409769,-2.41276 -5.409769,-5.40977 V 687.79533 c 0,-2.99701 2.412757,-5.40977 5.409769,-5.40977 z" /><path
         style="display:inline;fill:#ffffff;fill-opacity:1;fill-rule:nonzero;stroke:#4b4b4b;stroke-width:0;stroke-linecap:round;stroke-dasharray:none;stroke-opacity:1"
         d="m 267.13799,375.3639 -10.1383,0.95749 2.22763,15.34953 11.61158,-1.42824 -0.89646,-15.02886 z"
         id="path770" /><path
         style="display:inline;fill:#ffffff;fill-opacity:1;fill-rule:nonzero;stroke:#4b4b4b;stroke-width:0;stroke-linecap:round;stroke-dasharray:none;stroke-opacity:1"
         d="m 368.002,471.97698 26.19819,-7.14217 -3.54685,-10.27637 -26.41328,7.43034 z"
         id="path771" /><path
         style="display:inline;fill:#ffffff;fill-opacity:1;fill-rule:nonzero;stroke:#4b4b4b;stroke-width:0;stroke-linecap:round;stroke-dasharray:none;stroke-opacity:1"
         d="m 208.33009,563.02394 -18.93863,19.09953 -7.38817,-6.46741 20.5959,-17.06907 z"
         id="path772" /><path
         id="path637-7"
         style="display:inline;fill:url(#linearGradient766);stroke:url(#linearGradient646);stroke-width:0;stroke-linecap:round"
         transform="rotate(136.22129)"
         d="M 265.35561,-544.92377 A 118.95776,118.95731 0 0 1 198.1734,-437.82496 118.95776,118.95731 0 0 1 72.510005,-451.69571 l 73.887835,-93.22806 z" /><path
         id="path637-7-3"
         style="display:inline;fill:url(#linearGradient770);stroke:#4b4b4b;stroke-width:0;stroke-linecap:round"
         d="m 266.75091,350.06432 a 140.10729,149.7153 82.918332 0 1 157.24932,98.0617 l -143.61199,41.38627 z" /><path
         id="path637-7-3-9"
         style="display:inline;fill:#4d4d4d;stroke:#4b4b4b;stroke-width:0;stroke-linecap:round"
         transform="matrix(0.42282603,-0.90621087,0.91562125,0.40204194,0,0)"
         d="m -283.82893,534.25483 a 89.709007,90.658112 0 0 1 -75.1622,20.22528 89.709007,90.658112 0 0 1 -62.54755,-46.72445 l 79.32783,-42.33354 z" /><path
         id="path637-7-3-9-3"
         style="display:inline;fill:#4d4d4d;stroke:#4b4b4b;stroke-width:0;stroke-linecap:round"
         transform="rotate(-15.401942)"
         d="M 111.20524,644.34622 A 90.47776,90.477417 0 0 1 51.371175,598.39565 L 131.3788,556.14648 Z" /><path
         id="path637-7-4"
         style="display:inline;fill:#ffffff;stroke:#4b4b4b;stroke-width:0;stroke-linecap:round"
         transform="rotate(-8.2575516)"
         d="m 245.94022,531.86371 a 42.509251,42.50909 0 0 1 -42.50925,42.50909 42.509251,42.50909 0 0 1 -42.50925,-42.50909 42.509251,42.50909 0 0 1 42.50925,-42.50909 42.509251,42.50909 0 0 1 42.50925,42.50909 z" /></g></g></svg>
